{
  "title": "Fantastic Four 2015 HDTS XviD AC3-VAiN",
  "uid": 12220692,
  "size": 1521152633,
  "categoryP": "video",
  "categoryS": "movies",
  "magnet": "?xt=urn:btih:789178bc10bec2dfb57ea1c6a483fbb4b0b97db2&amp;dn=Fantastic+Four+2015+HDTS+XviD+AC3-VAiN&amp;tr=udp%3A%2F%2Ftracker.openbittorrent.com%3A80&amp;tr=udp%3A%2F%2Fopen.demonii.com%3A1337&amp;tr=udp%3A%2F%2Ftracker.coppersurfer.tk%3A6969&amp;tr=udp%3A%2F%2Fexodus.desync.com%3A6969",
  "seeders": 55,
  "leechers": 22,
  "uploader": "SS132203",
  "files": 5,
  "time": 1439360681,
  "description": "Fantastic Four 2015 HDTS XviD AC3-VAiN\n &lt;a href=&quot;\nhttp://imgsparrow.co/image/8Ev&quot; rel=&quot;nofollow&quot; target=&quot;_NEW&quot;&gt;\nhttp://imgsparrow.co/image/8Ev&lt;/a&gt;\n &lt;a href=&quot;\nhttp://imgsparrow.co/image/9b&quot; rel=&quot;nofollow&quot; target=&quot;_NEW&quot;&gt;\nhttp://imgsparrow.co/image/9b&lt;/a&gt;\n\nInfo : - \n\nThank VAiN Not ME!\n\niMDB: http://www.imdb.com/title/tt1502712/\nPLOT........:Four young outsiders teleport to an alternate and dangerous universe which alters their physical form in shocking ways. The four must learn to harness their new abilities and work together to save Earth from a former friend turned enemy\n\nT E C H N i C A L . i N F O\n\nBasic Information\nFormat: MPEG-4 Visual\nFormat profile: Advanced Simple@L5\nFormat settings, BVOP: 2\nFormat settings, QPel: No\nFormat settings, GMC: No warppoints\nFormat settings, Matrix: Default (H.263)\nMuxing mode: Packed bitstream\nCodec ID: XVID\nCodec ID/Hint: XviD\nDuration: 1h 32mn\nBit rate: 1 854 Kbps\nWidth: 720 pixels\nHeight: 288 pixels\nDisplay aspect ratio: 2.500\nFrame rate: 29.970 fps\nColor space: YUV\nChroma subsampling: 4:2:0\nBit depth: 8 bits\nScan type: Progressive\nCompression mode: Lossy\nBits/(Pixel*Frame): 0.298\nStream size: 1.20 GiB (87%)\nWriting library: XviD 67\n\nAudio\nID: 1\nFormat: AC-3\nFormat/Info: Audio Coding 3\nMode extension: CM (complete main)\nFormat settings, Endianness: Big\nCodec ID: 2000\nDuration: 1h 32mn\nBit rate mode: Constant\nBit rate: 256 Kbps\nChannel(s): 2 channels\nChannel positions: Front: L R\nSampling rate: 48.0 KHz\nCompression mode: Lossy\nStream size: 169 MiB (12%)\nAlignment: Split accross interleaves\nInterleave, duration: 33 ms (1.00 video frame)\nInterleave, preload duratio: 500 ms\n\nE N C O D E R S . N O T E S\n\nSOURCE: ViDEO...latino: AUDiO...HiVE-CM8 release\nSAMPLE: Yippers 2 of em'\nADDED NOTE: video was really nice, however did tweak a few things here and there. rgb, lvls, denoise, sharp &amp; resized. cropped, chopped rotated &amp; what not. audio waz sexy as fck just a few filters then muxed ova this sexy mofo and well.... here we are!!! oh the lulz\n\nScreens : - \n &lt;a href=&quot;\nhttp://imgsparrow.co/image/8we&quot; rel=&quot;nofollow&quot; target=&quot;_NEW&quot;&gt;\nhttp://imgsparrow.co/image/8we&lt;/a&gt; &lt;a href=&quot;\nhttp://imgsparrow.co/image/8wg&quot; rel=&quot;nofollow&quot; target=&quot;_NEW&quot;&gt;\nhttp://imgsparrow.co/image/8wg&lt;/a&gt; &lt;a href=&quot;\nhttp://imgsparrow.co/image/8wq&quot; rel=&quot;nofollow&quot; target=&quot;_NEW&quot;&gt;\nhttp://imgsparrow.co/image/8wq&lt;/a&gt; &lt;a href=&quot;\nhttp://imgsparrow.co/image/8wz&quot; rel=&quot;nofollow&quot; target=&quot;_NEW&quot;&gt;\nhttp://imgsparrow.co/image/8wz&lt;/a&gt; &lt;a href=&quot;\nhttp://imgsparrow.co/image/8w7&quot; rel=&quot;nofollow&quot; target=&quot;_NEW&quot;&gt;\nhttp://imgsparrow.co/image/8w7&lt;/a&gt; &lt;a href=&quot;\nhttp://imgsparrow.co/image/8wk&quot; rel=&quot;nofollow&quot; target=&quot;_NEW&quot;&gt;\nhttp://imgsparrow.co/image/8wk&lt;/a&gt; &lt;a href=&quot;\nhttp://imgsparrow.co/image/8wn&quot; rel=&quot;nofollow&quot; target=&quot;_NEW&quot;&gt;\nhttp://imgsparrow.co/image/8wn&lt;/a&gt; &lt;a href=&quot;\nhttp://imgsparrow.co/image/8wy&quot; rel=&quot;nofollow&quot; target=&quot;_NEW&quot;&gt;\nhttp://imgsparrow.co/image/8wy&lt;/a&gt;\n &lt;a href=&quot;\nhttp://imgsparrow.co/image/N2&quot; rel=&quot;nofollow&quot; target=&quot;_NEW&quot;&gt;\nhttp://imgsparrow.co/image/N2&lt;/a&gt;",
  "parsed": {
    "xt": "urn:btih:789178bc10bec2dfb57ea1c6a483fbb4b0b97db2",
    "dn": "Fantastic Four 2015 HDTS XviD AC3-VAiN",
    "tr": [
      "udp://exodus.desync.com:6969",
      "udp://open.demonii.com:1337",
      "udp://tracker.coppersurfer.tk:6969",
      "udp://tracker.openbittorrent.com:80"
    ],
    "infoHash": "789178bc10bec2dfb57ea1c6a483fbb4b0b97db2",
    "infoHashBuffer": {
      "type": "Buffer",
      "data": [
        120,
        145,
        120,
        188,
        16,
        190,
        194,
        223,
        181,
        126,
        161,
        198,
        164,
        131,
        251,
        180,
        176,
        185,
        125,
        178
      ]
    },
    "name": "Fantastic Four 2015 HDTS XviD AC3-VAiN",
    "announce": [
      "udp://exodus.desync.com:6969",
      "udp://open.demonii.com:1337",
      "udp://tracker.coppersurfer.tk:6969",
      "udp://tracker.openbittorrent.com:80"
    ],
    "urlList": []
  },
  "previous": 77,
  "peers": 12,
  "last_updated": "2016-12-25T05:16:55.062Z"
}